<svg width="99" height="99" viewBox="0 0 99 99" fill="none" xmlns="http://www.w3.org/2000/svg">
<g id="Frame 1" clip-path="url(#clip0_254_624)">
<circle id="Ellipse 1" cx="49.5" cy="49.5" r="49.5" fill="#145C3C"/>
<g id="Group 97">
<g id="g1996">
<path id="path1998" d="M53.4802 47.7798V32.05C53.4802 30.0452 55.1055 28.42 57.1102 28.42C59.1149 28.42 60.7401 30.0453 60.7401 32.05V47.7798" stroke="#92C869" stroke-width="3.5" stroke-miterlimit="10" stroke-linecap="round" stroke-linejoin="round"/>
</g>
<g id="g2000">
<path id="path2002" d="M60.7401 47.7798V38.0999C60.7401 36.0952 62.3654 34.47 64.3701 34.47C66.3748 34.47 68 36.0952 68 38.0999V47.7798" stroke="#92C869" stroke-width="3.5" stroke-miterlimit="10" stroke-linecap="round" stroke-linejoin="round"/>
</g>
<g id="g2004">
<path id="path2006" d="M38.9604 46.6994V57.9797L33.3416 48.2445C32.1523 46.1839 29.4203 45.6424 27.5348 47.0936C25.9721 48.2964 25.5413 50.4704 26.5274 52.1783L33.1329 63.6185C35.1719 67.1503 37.7047 70.373 40.6544 73.1891L63.1601 73.1892C66.259 70.0902 68 65.8872 68 61.5045V47.7795" stroke="#92C869" stroke-width="3.5" stroke-miterlimit="10" stroke-linecap="round" stroke-linejoin="round"/>
</g>
<g id="g2008">
<path id="path2010" d="M38.9604 57.9797V34.4697C38.9604 32.4649 40.5857 30.8398 42.5904 30.8398C44.5951 30.8398 46.2204 32.4649 46.2204 34.4697V47.7796" stroke="#92C869" stroke-width="3.5" stroke-miterlimit="10" stroke-linecap="round" stroke-linejoin="round"/>
</g>
<g id="g2012">
<path id="path2014" d="M46.2203 47.7798V29.63C46.2203 27.6252 47.8456 26.0001 49.8503 26.0001C51.855 26.0001 53.4802 27.6252 53.4802 29.63V47.7798" stroke="#92C869" stroke-width="3.5" stroke-miterlimit="10" stroke-linecap="round" stroke-linejoin="round"/>
</g>
</g>
</g>
<defs>
<clipPath id="clip0_254_624">
<rect width="99" height="99" fill="white"/>
</clipPath>
</defs>
</svg>
