<svg width="252" height="49" viewBox="0 0 252 49" fill="none" xmlns="http://www.w3.org/2000/svg">
<g id="HouseShake Full Logo Horizontal Duotone 2">
<g id="HouseShake-Logomark">
<path d="M34.7704 25.0358C34.7704 20.8351 29.4528 15.3861 27.8214 13.8131C27.3287 13.3386 26.555 13.3386 26.0623 13.8131C24.4309 15.3824 19.1133 20.8314 19.1133 25.0358C19.1133 29.2402 22.2338 32.4556 26.2083 32.8242V47.6273H27.6682V32.8242C31.6426 32.4556 34.7668 29.1052 34.7668 25.0358H34.7704ZM26.2119 27.8023L20.8433 23.4957C21.1973 22.357 21.8834 21.1051 22.7594 19.846L26.2119 22.6161V27.8023ZM27.6718 22.6124L31.1244 19.846C32.0003 21.1051 32.6864 22.3533 33.0405 23.492L27.6718 27.795V22.6088V22.6124ZM30.2558 18.6708L27.6718 20.7438V15.7292C28.5696 16.6489 29.4601 17.6489 30.2558 18.6744V18.6708ZM26.2119 15.7292V20.7475L23.6243 18.6744C24.4236 17.6525 25.3105 16.6525 26.2119 15.7292ZM20.5805 25.1599L26.2119 29.6745V31.357C23.0842 30.9994 20.6425 28.3643 20.5805 25.1563V25.1599ZM27.6718 31.3607V29.6709L33.3032 25.1563C33.2448 28.368 30.7996 30.9994 27.6718 31.3607Z" fill="#92C869"/>
<path d="M45.0478 41.6747C45.0478 44.5542 42.7047 46.901 39.8215 46.901H14.0658C11.1862 46.901 8.83945 44.5579 8.83945 41.6747V23.7292L11.5147 25.8752L12.4271 24.7365L8.10951 21.273L3.78831 24.7365L4.70073 25.8752L7.37593 23.7292V41.671C7.37593 45.3572 10.376 48.3572 14.0621 48.3572H39.8178C43.504 48.3572 46.504 45.3572 46.504 41.671V24.6307H45.0441V41.671L45.0478 41.6747Z" fill="#145C3C"/>
<path d="M53.2523 15.2949L52.8545 18.9007L31.128 1.48085C28.6645 -0.493618 25.2265 -0.493618 22.763 1.48085L0 19.7329L0.912416 20.8715L23.679 2.61955C25.6024 1.07574 28.2922 1.07574 30.2156 2.61955L51.5953 19.7657L48.4347 20.1124L48.5953 21.565L54.099 20.9591L54.7048 15.4554L53.2523 15.2949Z" fill="#145C3C"/>
</g>
<g id="HouseShake-Logotype">
<path d="M69.7094 33.9449V14.3938H73.0077V22.5055H82.4027V14.3938H85.7011V33.9449H82.4027V25.4251H73.0077V33.9449H69.7094Z" fill="#145C3C"/>
<path d="M89.0877 24.1381C89.0877 18.5048 92.9671 14.0996 98.7181 14.0996C104.469 14.0996 108.348 18.5048 108.348 24.1381C108.348 29.7714 104.44 34.206 98.7181 34.206C92.9965 34.206 89.0877 29.8008 89.0877 24.1381ZM104.903 24.1381C104.903 20.1117 102.833 17.2215 98.7438 17.2215C94.6549 17.2215 92.5552 20.1117 92.5552 24.1381C92.5552 28.1645 94.6549 31.0547 98.7438 31.0547C102.833 31.0547 104.903 28.1939 104.903 24.1381Z" fill="#145C3C"/>
<path d="M111.5 25.5979V14.3938H114.768V25.6273C114.768 29.5104 116.081 31.0842 119.291 31.0842C122.501 31.0842 123.814 29.5067 123.814 25.6273V14.3938H127.083V25.5979C127.083 31.5217 124.601 34.2354 119.262 34.2354C113.923 34.2354 111.5 31.5217 111.5 25.5979Z" fill="#145C3C"/>
<path d="M129.915 29.5949L132.25 27.2306C133.301 30.0913 136.247 31.1982 138.64 31.1982C140.597 31.1982 142.17 30.4995 142.17 28.7161C142.17 26.8187 140.593 26.2929 138.056 25.7413L136.217 25.3332C133.445 24.7485 130.499 23.4946 130.499 19.7881C130.499 16.0816 133.68 14.1254 137.357 14.1254C141.034 14.1254 143.807 15.6146 145.208 18.2989L142.726 20.6633C141.645 18.24 139.545 17.1921 137.151 17.1921C135.283 17.1921 133.941 18.0672 133.941 19.5565C133.941 21.2773 135.283 21.8914 137.412 22.4172L139.6 22.9431C142.722 23.7005 145.524 24.9287 145.524 28.661C145.524 32.191 142.545 34.2354 138.578 34.2354C134.842 34.2354 131.43 32.8933 129.911 29.5949H129.915Z" fill="#145C3C"/>
<path d="M148.793 14.3938H162.626V17.3134H152.091V22.5092H160.817V25.4288H152.091V31.0327H162.626V33.9523H148.793V14.3938Z" fill="#145C3C"/>
<path d="M165.399 29.1279L166.888 27.8446C167.822 31.2018 171.002 32.4263 173.569 32.4263C175.963 32.4263 178.062 31.4629 178.062 28.9845C178.062 26.679 176.456 25.8627 173.481 25.1604L171.352 24.6934C168.609 24.0499 165.983 22.8548 165.983 19.4388C165.983 16.0228 168.987 14.1291 172.286 14.1291C175.875 14.1291 178.559 15.7323 179.699 18.6813L178.092 19.9646C177.187 17.2215 175.088 15.9382 172.256 15.9382C169.892 15.9382 167.995 17.1627 167.995 19.2954C167.995 21.4281 169.425 22.2996 171.962 22.9136L174.268 23.4689C177.272 24.1675 179.989 25.3369 179.989 28.9257C179.989 32.5146 177.158 34.206 173.569 34.206C169.98 34.206 166.652 32.7462 165.399 29.1279Z" fill="#145C3C"/>
<path d="M183.843 33.9449V14.3938H185.77V23.1196H196.683V14.3938H198.61V33.9449H196.683V24.8404H185.77V33.9449H183.843Z" fill="#145C3C"/>
<path d="M200.71 33.9449L208.56 14.3938H210.517L218.367 33.9449H216.238L213.874 27.9329H205.089L202.725 33.9449H200.71ZM205.758 26.2414H213.201L210.517 19.3836L209.494 16.35L208.472 19.3836L205.758 26.2414Z" fill="#145C3C"/>
<path d="M220.463 33.9449V14.3938H222.39V22.0385L222.302 25.278L224.813 22.5937L232.575 14.3938H234.999L227.674 22.0385L235.672 33.9449H233.307L226.302 23.41L222.394 27.5541V33.9449H220.463Z" fill="#145C3C"/>
<path d="M238.293 33.9449V14.3938H251.424V16.0853H240.22V23.1196H249.531V24.8404H240.22V32.2535H251.424V33.9449H238.293Z" fill="#145C3C"/>
</g>
</g>
</svg>
