<svg width="135" height="119" viewBox="0 0 135 119" fill="none" xmlns="http://www.w3.org/2000/svg">
<g id="HouseShake Full Logo Horizontal Duotone 2">
<g id="HouseShake-Logomark">
<path d="M85.5649 61.6095C85.5649 51.272 72.4791 37.8629 68.4645 33.992C67.252 32.8244 65.348 32.8244 64.1355 33.992C60.1209 37.8539 47.0351 51.263 47.0351 61.6095C47.0351 71.956 54.7141 79.8685 64.4948 80.7756V117.204H68.0873V80.7756C77.8679 79.8685 85.5559 71.6236 85.5559 61.6095H85.5649ZM64.5037 68.4173L51.2923 57.8194C52.1635 55.0172 53.8519 51.9366 56.0074 48.8381L64.5037 55.6549V68.4173ZM68.0963 55.6459L76.5926 48.8381C78.7481 51.9366 80.4366 55.0082 81.3077 57.8104L68.0963 68.3994V55.6369V55.6459ZM74.455 45.9461L68.0963 51.0475V38.7072C70.3057 40.9705 72.4971 43.4313 74.455 45.9551V45.9461ZM64.5037 38.7072V51.0565L58.136 45.9551C60.1029 43.4403 62.2854 40.9794 64.5037 38.7072ZM50.6456 61.9149L64.5037 73.0247V77.1651C56.8068 76.285 50.7983 69.8005 50.6456 61.9059V61.9149ZM68.0963 77.1741V73.0158L81.9544 61.9059C81.8107 69.8094 75.7932 76.285 68.0963 77.1741Z" fill="#92C869"/>
<path d="M110.856 102.555C110.856 109.641 105.09 115.416 97.9948 115.416H34.6138C27.5276 115.416 21.7526 109.65 21.7526 102.555V58.3942L28.3359 63.6752L30.5812 60.873L19.9563 52.3498L9.32248 60.873L11.5678 63.6752L18.1511 58.3942V102.546C18.1511 111.617 25.5337 119 34.6048 119H97.9858C107.057 119 114.44 111.617 114.44 102.546V60.6126H110.847V102.546L110.856 102.555Z" fill="#145C3C"/>
<path d="M131.046 37.6384L130.067 46.5119L76.6014 3.64416C70.5391 -1.21472 62.0787 -1.21472 56.0163 3.64416L0 48.5597L2.24532 51.3618L58.2706 6.44633C63.0038 2.64724 69.623 2.64724 74.3561 6.44633L126.969 48.6405L119.191 49.4937L119.586 53.0683L133.13 51.5774L134.621 38.0336L131.046 37.6384Z" fill="#145C3C"/>
</g>
</g>
</svg>
