<svg width="24" height="25" viewBox="0 0 24 25" fill="none" xmlns="http://www.w3.org/2000/svg">
<g id="Icon feather-user">
<g id="Icon feather-user_2">
<path id="Path 150" d="M22 23.5005V21C22 19.6739 21.4732 18.4021 20.5355 17.4645C19.5979 16.5268 18.3261 16 17 16H7C5.67392 16 4.40215 16.5268 3.46447 17.4645C2.52678 18.4021 2 19.6739 2 21V23.5005" stroke="#283430" stroke-width="1.8" stroke-linecap="round" stroke-linejoin="round"/>
<path id="Path 151" d="M17 6C17 6.98891 16.7068 7.95561 16.1574 8.77785C15.6079 9.6001 14.8271 10.241 13.9134 10.6194C12.9998 10.9978 11.9945 11.0969 11.0246 10.9039C10.0546 10.711 9.16373 10.2348 8.46447 9.53553C7.76521 8.83627 7.289 7.94536 7.09608 6.97545C6.90315 6.00555 7.00217 5.00021 7.38061 4.08658C7.75904 3.17295 8.39991 2.39206 9.22215 1.84265C10.0444 1.29325 11.0111 1 12 1C13.3261 1 14.5979 1.52678 15.5355 2.46447C16.4732 3.40215 17 4.67392 17 6Z" stroke="#283430" stroke-width="1.8" stroke-linecap="round" stroke-linejoin="round"/>
</g>
</g>
</svg>
