<svg width="25" height="24" viewBox="0 0 25 24" fill="none" xmlns="http://www.w3.org/2000/svg">
<g id="social-icon/instagram">
<path id="Vector" d="M12.3125 6.87225C9.47483 6.87225 7.18593 9.16166 7.18593 12C7.18593 14.8383 9.47483 17.1277 12.3125 17.1277C15.1502 17.1277 17.4391 14.8383 17.4391 12C17.4391 9.16166 15.1502 6.87225 12.3125 6.87225ZM12.3125 15.3337C10.4787 15.3337 8.97957 13.8387 8.97957 12C8.97957 10.1613 10.4743 8.6663 12.3125 8.6663C14.1508 8.6663 15.6455 10.1613 15.6455 12C15.6455 13.8387 14.1463 15.3337 12.3125 15.3337ZM18.8446 6.6625C18.8446 7.32746 18.3092 7.85853 17.6488 7.85853C16.984 7.85853 16.4531 7.32299 16.4531 6.6625C16.4531 6.00201 16.9885 5.46647 17.6488 5.46647C18.3092 5.46647 18.8446 6.00201 18.8446 6.6625ZM22.24 7.87638C22.1642 6.27424 21.7983 4.85507 20.6249 3.68582C19.4559 2.51657 18.037 2.15062 16.4352 2.07029C14.7844 1.97657 9.83624 1.97657 8.18537 2.07029C6.58805 2.14616 5.1692 2.51211 3.99575 3.68136C2.82229 4.85061 2.46089 6.26978 2.38058 7.87192C2.28688 9.52315 2.28688 14.4724 2.38058 16.1236C2.45643 17.7258 2.82229 19.1449 3.99575 20.3142C5.1692 21.4834 6.58359 21.8494 8.18537 21.9297C9.83624 22.0234 14.7844 22.0234 16.4352 21.9297C18.037 21.8538 19.4559 21.4879 20.6249 20.3142C21.7938 19.1449 22.1597 17.7258 22.24 16.1236C22.3337 14.4724 22.3337 9.52761 22.24 7.87638ZM20.1073 17.8953C19.7593 18.7701 19.0855 19.4439 18.2066 19.7965C16.8903 20.3186 13.7671 20.1981 12.3125 20.1981C10.858 20.1981 7.73027 20.3142 6.4185 19.7965C5.54399 19.4484 4.87026 18.7745 4.51778 17.8953C3.99575 16.5788 4.11621 13.4549 4.11621 12C4.11621 10.5451 4.00021 7.41671 4.51778 6.10465C4.8658 5.22995 5.53953 4.55606 6.4185 4.2035C7.73473 3.68136 10.858 3.80185 12.3125 3.80185C13.7671 3.80185 16.8948 3.68582 18.2066 4.2035C19.0811 4.5516 19.7548 5.22548 20.1073 6.10465C20.6293 7.42118 20.5089 10.5451 20.5089 12C20.5089 13.4549 20.6293 16.5833 20.1073 17.8953Z" fill="#145C3C"/>
</g>
</svg>
