<svg width="38" height="24" viewBox="0 0 38 24" fill="none" xmlns="http://www.w3.org/2000/svg">
<g id="svgexport-27" clip-path="url(#clip0_15_313)">
<path id="Vector" opacity="0.07" d="M35 0H3C1.3 0 0 1.3 0 3V21C0 22.7 1.4 24 3 24H35C36.7 24 38 22.7 38 21V3C38 1.3 36.6 0 35 0Z" fill="black"/>
<path id="Vector_2" d="M35 1C36.1 1 37 1.9 37 3V21C37 22.1 36.1 23 35 23H3C1.9 23 1 22.1 1 21V3C1 1.9 1.9 1 3 1H35Z" fill="white"/>
<path id="Vector_3" d="M23.9 8.3C24.1 7.3 23.9 6.6 23.3 6C22.7 5.3 21.6 5 20.2 5H16.1C15.8 5 15.6 5.2 15.5 5.5L14 15.6C14 15.8 14.1 16 14.3 16H17L17.4 12.6L19.2 10.4L23.9 8.3Z" fill="#003087"/>
<path id="Vector_4" d="M23.9 8.2998L23.7 8.4998C23.2 11.2998 21.5 12.2998 19.1 12.2998H18C17.7 12.2998 17.5 12.4998 17.4 12.7998L16.8 16.6998L16.6 17.6998C16.6 17.8998 16.7 18.0998 16.9 18.0998H19C19.3 18.0998 19.5 17.8998 19.5 17.6998V17.5998L19.9 15.1998V15.0998C19.9 14.8998 20.2 14.6998 20.4 14.6998H20.7C22.8 14.6998 24.4 13.8998 24.8 11.4998C25 10.4998 24.9 9.6998 24.4 9.0998C24.3 8.5998 24.1 8.3998 23.9 8.2998Z" fill="#3086C8"/>
<path id="Vector_5" d="M23.3 8.0998C23.2 7.9998 23.1 7.9998 23 7.9998C22.9 7.9998 22.8 7.9998 22.7 7.8998C22.4 7.7998 22 7.7998 21.6 7.7998H18.6C18.5 7.7998 18.4 7.7998 18.4 7.8998C18.2 7.9998 18.1 8.0998 18.1 8.2998L17.4 12.6998V12.7998C17.4 12.4998 17.7 12.2998 18 12.2998H19.3C21.8 12.2998 23.4 11.2998 23.9 8.4998V8.2998C23.8 8.1998 23.6 8.0998 23.4 8.0998H23.3Z" fill="#012169"/>
</g>
<defs>
<clipPath id="clip0_15_313">
<rect width="38" height="24" fill="white"/>
</clipPath>
</defs>
</svg>
