<svg width="38" height="24" viewBox="0 0 38 24" fill="none" xmlns="http://www.w3.org/2000/svg">
<g id="svgexport-29" clip-path="url(#clip0_15_323)">
<path id="Vector" d="M17.7 0V24H10.5C9.2 24 8.4 23 8.7 21.7L13.1 2.3C13.4 0.999999 15 0 16.3 0H17.7ZM30.3 0C29 0 27.4 0.999999 27.1 2.3L22.6 21.7C22.3 23 23.1 24 24.4 24H19.5V0H30.3Z" fill="#005B9A"/>
<path id="Vector_2" d="M16.3 0C15 0 13.4 1.1 13.1 2.3L8.69998 21.7C8.39998 23 9.19998 24 10.5 24H1.59998C0.799976 24 0.0999756 23.4 0.0999756 22.6V1.6C0.0999756 0.8 0.799976 0 1.59998 0H16.3Z" fill="#E9292D"/>
<path id="Vector_3" d="M30.2999 0C28.9999 0 27.3999 1.1 27.0999 2.3L22.6999 21.7C22.3999 23 23.1999 24 24.4999 24H9.99994H10.4999C9.19994 24 8.39994 23 8.69994 21.7L13.0999 2.3C13.3999 0.999999 14.9999 0 16.2999 0H30.2999Z" fill="#0E73B9"/>
<path id="Vector_4" d="M38 1.6V22.6C38 23.4 37.4 24 36.5 24H24.4C23.1 24 22.3 22.9 22.6 21.7L27.1 2.3C27.4 0.999999 29 0 30.3 0H36.5C37.4 0 38 0.7 38 1.6Z" fill="#059DA4"/>
<path id="Vector_5" d="M14.8781 13.6449H15.0181C15.1581 13.6449 15.2981 13.5749 15.2981 13.5049L15.7181 12.8749H16.9081L16.6981 13.2249H18.0981L17.8881 13.8549H16.2081C15.9981 14.1349 15.7881 14.2749 15.5081 14.2749H14.6681L14.8781 13.6449ZM14.6681 14.5549H17.6781L17.4681 15.2549H16.2781L16.0681 15.9549H17.2581L17.0481 16.6549H15.8581L15.5781 17.7049C15.5081 17.8449 15.5781 17.9849 15.8581 17.9149H16.8381L16.6281 18.6149H14.7381C14.3881 18.6149 14.2481 18.4049 14.3881 17.9849L14.7381 16.6549H13.9681L14.1781 15.9549H14.9481L15.1581 15.2549H14.4581L14.6681 14.5549ZM19.4981 12.8049V13.2249C19.4981 13.2249 20.0581 12.8049 20.6181 12.8049H22.5781L21.8081 15.4649C21.7381 15.7449 21.4581 15.9549 21.0381 15.9549H18.7981L18.3081 17.8449C18.3081 17.9149 18.3081 17.9849 18.4481 17.9849H18.8681L18.7281 18.5449H17.6081C17.1881 18.5449 17.0481 18.4049 17.1181 18.1949L18.5881 12.8049H19.4981ZM21.1781 13.5749H19.4281L19.2181 14.2749C19.2181 14.2749 19.4981 14.0649 19.9881 14.0649H21.0381L21.1781 13.5749ZM20.5481 15.2549C20.6881 15.2549 20.7581 15.2549 20.7581 15.1149L20.8981 14.7649H19.1481L19.0081 15.3249L20.5481 15.2549ZM19.3581 16.0949H20.3381V16.5149H20.6181C20.7581 16.5149 20.8281 16.4449 20.8281 16.3749L20.8981 16.0949H21.7381L21.5981 16.5849C21.5281 16.9349 21.2481 17.0749 20.8281 17.1449H20.2681V17.9149C20.2681 18.0549 20.3381 18.1249 20.6181 18.1249H21.1081L20.9681 18.6849H19.7781C19.4281 18.6849 19.2881 18.5449 19.2881 18.1949L19.3581 16.0949ZM23.5581 13.6449L23.7681 12.8049H24.9581L24.8881 13.0849C24.8881 13.0849 25.4481 12.8049 25.9381 12.8049H27.4081L27.1981 13.6449H26.9881L25.8681 17.4949H26.0781L25.8681 18.2649H25.6581L25.5881 18.6149H24.3981L24.4681 18.2649H22.2981L22.5081 17.4949H22.7181L23.8381 13.6449H23.5581ZM24.8181 13.6449L24.5381 14.6949C24.5381 14.6949 25.0281 14.4849 25.4481 14.4149C25.5181 14.0649 25.6581 13.6449 25.6581 13.6449H24.8181ZM24.3281 15.1849L24.0481 16.3049C24.0481 16.3049 24.6081 16.0249 25.0281 16.0249C25.1681 15.6049 25.2381 15.2549 25.2381 15.2549L24.3281 15.1849ZM24.5381 17.4949L24.7481 16.7249H23.9081L23.6981 17.4949H24.5381ZM27.4081 12.8049H28.5281L28.5981 13.2249C28.5981 13.2949 28.6681 13.3649 28.8081 13.3649H29.0181L28.8081 14.0649H28.0381C27.7581 14.0649 27.5481 13.9949 27.5481 13.7149L27.4081 12.8049ZM27.0581 14.2749H30.6281L30.4181 15.0449H29.2281L29.0181 15.7449H30.1381L29.9281 16.5149H28.6681L28.3881 16.9349H29.0181L29.1581 17.7749C29.1581 17.8449 29.2281 17.9149 29.3681 17.9149H29.5781L29.3681 18.6149H28.6681C28.3181 18.6149 28.1081 18.5449 28.1081 18.2649L27.9681 17.4949L27.4081 18.3349C27.2681 18.5449 27.0581 18.6849 26.7781 18.6849H25.7281L25.9381 17.9849H26.2881C26.4281 17.9849 26.4981 17.9149 26.6381 17.7749L27.4781 16.5149H26.4281L26.6381 15.7449H27.8281L28.0381 15.0449H26.8481L27.0581 14.2749ZM7.31805 9.23494C7.17805 9.93494 6.89805 10.4249 6.40805 10.7749C5.91805 11.1249 5.28805 11.3349 4.51805 11.3349C3.81805 11.3349 3.25805 11.1249 2.97805 10.7749C2.76805 10.4949 2.62805 10.2149 2.62805 9.79494C2.62805 9.65494 2.62806 9.44494 2.69806 9.23494L3.53805 5.31494H4.72805L3.95805 9.23494V9.51494C3.95805 9.72494 4.02805 9.86494 4.09805 10.0049C4.23805 10.2149 4.44805 10.2849 4.79805 10.2849C5.14805 10.2849 5.49805 10.2149 5.70805 10.0049C5.91805 9.79494 6.12805 9.58494 6.19805 9.23494L6.96805 5.31494H8.15805L7.31805 9.23494ZM8.43805 7.69494H9.27805L9.20805 8.18494L9.34805 8.04494C9.62805 7.76494 9.97805 7.62494 10.3981 7.62494C10.7481 7.62494 11.0281 7.76494 11.1681 7.97494C11.3081 8.18494 11.3781 8.46494 11.3081 8.88494L10.8181 11.2649H9.90805L10.3281 9.09494C10.3981 8.81494 10.3981 8.60494 10.3281 8.53494C10.2581 8.39494 10.1181 8.39494 9.97805 8.39494C9.76805 8.39494 9.55805 8.46494 9.41805 8.60494C9.27805 8.74494 9.13805 8.95494 9.13805 9.23494L8.71805 11.2649H7.80805L8.43805 7.69494ZM18.2381 7.69494H19.0781L19.0081 8.18494L19.1481 8.04494C19.4281 7.76494 19.7781 7.62494 20.1981 7.62494C20.5481 7.62494 20.8281 7.76494 20.9681 7.97494C21.1081 8.18494 21.1781 8.46494 21.1081 8.88494L20.6181 11.2649H19.7081L20.1281 9.02494C20.1981 8.81494 20.1281 8.60494 20.0581 8.53494C19.9881 8.39494 19.8481 8.39494 19.7081 8.39494C19.4981 8.39494 19.2881 8.46494 19.1481 8.60494C19.0081 8.74494 18.8681 8.95494 18.8681 9.23494L18.4481 11.2649H17.5381L18.2381 7.69494ZM12.4281 7.69494H13.4081L12.6381 11.1949H11.6581L12.4281 7.69494ZM12.7781 6.36494H13.7581L13.5481 7.20494H12.5681L12.7781 6.36494ZM14.1781 10.9149C13.9681 10.7049 13.8281 10.3549 13.8281 9.93494V9.72494C13.8281 9.65494 13.8281 9.51494 13.8981 9.44494C14.0381 8.88494 14.2481 8.39494 14.5981 8.11494C14.9481 7.76494 15.4381 7.62494 15.9281 7.62494C16.3481 7.62494 16.6981 7.76494 16.9781 7.97494C17.1881 8.18494 17.3281 8.53494 17.3281 8.95494V9.16494C17.3281 9.23494 17.3281 9.37494 17.2581 9.44494C17.1181 10.0049 16.9081 10.4249 16.5581 10.7749C16.2081 11.1249 15.7181 11.2649 15.2281 11.2649C14.8781 11.2649 14.5281 11.1249 14.1781 10.9149ZM16.0681 10.2149C16.2081 10.0049 16.3481 9.72494 16.4181 9.37494V9.02494C16.4181 8.81494 16.3481 8.67494 16.2781 8.53494C16.2165 8.46651 16.1408 8.41229 16.0562 8.37603C15.9715 8.33977 15.8801 8.32234 15.7881 8.32494C15.5081 8.32494 15.2981 8.39494 15.1581 8.60494C15.0181 8.81494 14.8781 9.09494 14.8081 9.44494V9.72494C14.8081 9.93494 14.8781 10.0749 14.9481 10.2149C15.0881 10.3549 15.2281 10.4249 15.4381 10.4249C15.7181 10.4949 15.8581 10.4249 16.0681 10.2149ZM22.5781 5.52494H25.0981C25.5881 5.52494 25.9381 5.66494 26.2181 5.87494C26.4981 6.08494 26.5681 6.43494 26.5681 6.78494V7.06494C26.5681 7.13494 26.5681 7.27494 26.4981 7.34494C26.4281 7.83494 26.1481 8.32494 25.7981 8.60494C25.3781 8.95494 24.9581 9.09494 24.3981 9.09494H22.9981L22.5781 11.1249H21.3881L22.5781 5.52494ZM23.1381 8.11494H24.2581C24.5381 8.11494 24.7481 8.04494 24.9581 7.90494C25.0981 7.76494 25.2381 7.55494 25.3081 7.27494V6.99494C25.3081 6.78494 25.2381 6.64494 25.0981 6.57494C24.9581 6.50494 24.7481 6.43494 24.3981 6.43494H23.4881L23.1381 8.11494ZM31.8181 11.8249C31.4681 12.5949 31.1181 13.0849 30.9081 13.2949C30.6981 13.5049 30.2781 13.9949 29.2981 13.9949L29.3681 13.3649C30.2081 13.0849 30.6281 11.9649 30.9081 11.4049L30.6281 7.62494H31.8181L31.8881 10.0049L32.7981 7.69494H33.8481L31.8181 11.8249ZM28.8781 7.97494L28.4581 8.25494C28.0381 7.90494 27.6181 7.69494 26.9181 8.04494C25.9381 8.53494 25.0281 12.1749 27.8281 10.9849L27.9681 11.1949H29.0881L29.7881 7.90494L28.8781 7.97494ZM28.3181 9.79494C28.1081 10.3549 27.7581 10.6349 27.4081 10.5649C27.1281 10.4249 27.0581 9.93494 27.1981 9.37494C27.4081 8.81494 27.7581 8.53494 28.1081 8.60494C28.3881 8.74494 28.4581 9.23494 28.3181 9.79494Z" fill="white"/>
</g>
<defs>
<clipPath id="clip0_15_323">
<rect width="38" height="24" fill="white"/>
</clipPath>
</defs>
</svg>
